<svg width="650" height="400" viewBox="0 0 650 400" fill="none" xmlns="http://www.w3.org/2000/svg">
<path d="M510.191 272.635L510.191 272.637C501.936 305.246 487.505 331.19 463.428 348.99C439.345 366.795 405.542 376.505 358.441 376.505C295.7 376.505 245.586 352.159 211.144 308.333C176.69 264.492 157.882 201.108 157.882 122.984C157.882 44.8605 176.69 -18.5277 210.115 -62.3714C243.528 -106.2 291.574 -130.537 350.165 -130.537C386.463 -130.537 416.327 -119.403 438.663 -99.0228C460.919 -78.7159 475.742 -49.1898 481.975 -12.2367L397.134 22.3589L397.132 22.3596C340.853 45.5332 303.13 65.4211 279.474 86.0677C255.785 106.744 246.191 128.195 246.191 154.43C246.191 178.553 254.304 198.358 269.223 212.129C284.136 225.895 305.793 233.579 332.787 233.579C380.967 233.579 433.642 206.594 474.253 167.122C514.865 127.65 543.514 75.5927 543.514 25.3348C543.514 -76.8361 457.113 -141.533 350.165 -141.533C210.034 -141.533 90.6138 -39.5239 90.6138 122.984C90.6138 204.22 120.459 270.359 168.879 316.187C217.295 362.011 284.254 387.501 358.441 387.501C420.616 387.501 478.435 367.399 520.716 340.662C541.856 327.294 559.128 312.257 571.12 297.228C583.105 282.208 589.856 267.146 589.856 253.735C589.856 244.51 586.71 236.304 581.018 230.401C575.323 224.495 567.111 220.928 557.049 220.928C543.22 220.928 533.346 226.599 526.012 235.924C518.7 245.22 513.92 258.135 510.191 272.635ZM397.536 34.1033L397.538 34.1024L482.934 -1.20525C483.739 7.66016 484.521 16.4994 484.521 25.3348C484.521 92.7388 473.352 137.502 453.997 165.402C434.67 193.263 407.129 204.377 374.164 204.377C352.341 204.377 334.484 197.791 322.086 186.008C309.691 174.228 302.701 157.204 302.701 136.225C302.701 118.099 306.199 100.852 319.755 84.01C333.328 67.1465 357.024 50.6387 397.536 34.1033Z" stroke="black" stroke-width="1.06534"/>
<path d="M499.538 272.635L499.538 272.637C491.282 305.246 476.852 331.19 452.775 348.99C428.692 366.795 394.889 376.505 347.787 376.505C285.047 376.505 234.933 352.159 200.491 308.333C166.037 264.492 147.229 201.108 147.229 122.984C147.229 44.8605 166.037 -18.5277 199.461 -62.3714C232.875 -106.2 280.921 -130.537 339.512 -130.537C375.81 -130.537 405.674 -119.403 428.01 -99.0228C450.265 -78.7159 465.089 -49.1898 471.322 -12.2367L386.48 22.3589L386.479 22.3596C330.2 45.5332 292.477 65.4211 268.821 86.0677C245.132 106.744 235.537 128.195 235.537 154.43C235.537 178.553 243.651 198.358 258.569 212.129C273.483 225.895 295.14 233.579 322.134 233.579C370.314 233.579 422.989 206.594 463.6 167.122C504.212 127.65 532.861 75.5927 532.861 25.3348C532.861 -76.8361 446.46 -141.533 339.512 -141.533C199.381 -141.533 79.9605 -39.5239 79.9605 122.984C79.9605 204.22 109.806 270.359 158.226 316.187C206.642 362.011 273.601 387.501 347.787 387.501C409.963 387.501 467.781 367.399 510.062 340.662C531.203 327.294 548.475 312.257 560.467 297.228C572.451 282.208 579.203 267.146 579.203 253.735C579.203 244.51 576.056 236.304 570.364 230.401C564.669 224.495 556.458 220.928 546.396 220.928C532.566 220.928 522.693 226.599 515.359 235.924C508.047 245.22 503.267 258.135 499.538 272.635ZM386.883 34.1033L386.885 34.1024L472.28 -1.20525C473.086 7.66016 473.868 16.4994 473.868 25.3348C473.868 92.7388 462.699 137.502 443.344 165.402C424.016 193.263 396.476 204.377 363.511 204.377C341.688 204.377 323.83 197.791 311.432 186.008C299.038 174.228 292.048 157.204 292.048 136.225C292.048 118.099 295.545 100.852 309.101 84.01C322.674 67.1465 346.371 50.6387 386.883 34.1033Z" fill="url(#paint0_linear_275_403)" stroke="black" stroke-width="1.06534"/>
<path d="M225.38 387.339H474.67" stroke="black" stroke-width="1.06534"/>
<path d="M79.96 13.9365L79.96 239.789" stroke="black" stroke-width="1.06534"/>
<circle cx="348.427" cy="387.34" r="3.19603" fill="#FFD300" stroke="black" stroke-width="1.06534"/>
<circle cx="472.007" cy="387.34" r="3.19603" fill="black" stroke="black" stroke-width="1.06534"/>
<circle cx="228.043" cy="387.34" r="3.19603" fill="black" stroke="black" stroke-width="1.06534"/>
<circle cx="348.427" cy="377.752" r="3.19603" fill="#FFD300" stroke="black" stroke-width="1.06534"/>
<circle cx="500.771" cy="273.348" r="3.19603" fill="#FFD300" stroke="black" stroke-width="1.06534"/>
<circle cx="546.58" cy="221.146" r="3.19603" fill="#FFD300" stroke="black" stroke-width="1.06534"/>
<circle cx="363.341" cy="205.166" r="3.19603" fill="#FFD300" stroke="black" stroke-width="1.06534"/>
<circle cx="322.859" cy="232.865" r="3.19603" fill="#FFD300" stroke="black" stroke-width="1.06534"/>
<circle cx="235.5" cy="154.03" r="3.19603" fill="#FFD300" stroke="black" stroke-width="1.06534"/>
<circle cx="291.963" cy="135.919" r="3.19603" fill="#FFD300" stroke="black" stroke-width="1.06534"/>
<circle cx="473.072" cy="-1.51096" r="3.19603" fill="#FFD300" stroke="black" stroke-width="1.06534"/>
<circle cx="386.78" cy="22.992" r="3.19603" fill="#FFD300" stroke="black" stroke-width="1.06534"/>
<circle cx="79.9602" cy="123.135" r="3.19603" fill="#FFD300" stroke="black" stroke-width="1.06534"/>
<circle cx="79.9602" cy="14.4695" r="3.19603" fill="black" stroke="black" stroke-width="1.06534"/>
<circle cx="79.9602" cy="237.126" r="3.19603" fill="black" stroke="black" stroke-width="1.06534"/>
<circle cx="146.012" cy="123.135" r="3.19603" fill="#FFD300" stroke="black" stroke-width="1.06534"/>
<circle cx="386.78" cy="33.6458" r="3.19603" fill="#FFD300" stroke="black" stroke-width="1.06534"/>
<circle cx="532.732" cy="25.1228" r="3.19603" fill="#FFD300" stroke="black" stroke-width="1.06534"/>
<circle cx="578.541" cy="254.172" r="3.19603" fill="#FFD300" stroke="black" stroke-width="1.06534"/>
<defs>
<linearGradient id="paint0_linear_275_403" x1="329.582" y1="-141" x2="329.582" y2="386.968" gradientUnits="userSpaceOnUse">
<stop/>
<stop offset="1"/>
</linearGradient>
</defs>
</svg>
