<svg width="102" height="102" viewBox="0 0 102 102" fill="none" xmlns="http://www.w3.org/2000/svg">
<path fill-rule="evenodd" clip-rule="evenodd" d="M0 4C0 1.79086 1.79086 0 4 0H98C100.209 0 102 1.79086 102 4V98C102 100.209 100.209 102 98 102H4C1.79086 102 0 100.209 0 98V4ZM2 6C2 3.79086 3.79086 2 6 2H30C32.2091 2 34 3.79086 34 6V21C34 23.2091 32.2091 25 30 25H6C3.79086 25 2 23.2091 2 21V6ZM40 2C37.7909 2 36 3.79086 36 6V46C36 48.2091 37.7909 50 40 50H96C98.2091 50 100 48.2091 100 46V6C100 3.79086 98.2091 2 96 2H40ZM3 56C3 53.7909 4.79086 52 7 52H64C66.2091 52 68 53.7909 68 56V96C68 98.2091 66.2091 100 64 100H7C4.79086 100 3 98.2091 3 96V56ZM74 52C71.7909 52 70 53.7909 70 56V96C70 98.2091 71.7909 100 74 100H96C98.2091 100 100 98.2091 100 96V56C100 53.7909 98.2091 52 96 52H74Z" fill="white"/>
</svg>
