<svg width="149" height="102" viewBox="0 0 149 102" fill="none" xmlns="http://www.w3.org/2000/svg">
<path d="M47 17H46C43.7909 17 42 18.7909 42 21L42 63C42 65.2091 43.7909 67 46 67H47C49.2091 67 51 65.2091 51 63L51 21C51 18.7909 49.2091 17 47 17Z" fill="white"/>
<path d="M80.1835 12L57 12C54.7909 12 53 13.7909 53 16L53 67.6197C53 69.8288 54.7909 71.6197 57 71.6197H80.1835C82.3927 71.6197 84.1835 69.8288 84.1835 67.6197L84.1835 16C84.1835 13.7909 82.3927 12 80.1835 12Z" fill="white"/>
<path d="M138.489 12.1396L114.118 12.1396C111.909 12.1396 110.118 13.9305 110.118 16.1396L110.118 67.7594C110.118 69.9685 111.909 71.7594 114.118 71.7594H138.489C140.699 71.7594 142.489 69.9685 142.489 67.7594V16.1396C142.489 13.9305 140.699 12.1396 138.489 12.1396Z" fill="white"/>
<path d="M148.149 69.9296V13.9694C148.149 12.9589 147.33 12.1396 146.319 12.1396C145.308 12.1396 144.489 12.9588 144.489 13.9694V69.9296C144.489 70.9402 145.308 71.7594 146.319 71.7594C147.33 71.7594 148.149 70.9402 148.149 69.9296Z" fill="white"/>
<path d="M92.8361 12L90 12C87.7909 12 86 13.7909 86 16L86 67.6197C86 69.8288 87.7909 71.6197 90 71.6197H92.8361C95.0452 71.6197 96.8361 69.8288 96.8361 67.6197L96.8361 16C96.8361 13.7909 95.0452 12 92.8361 12Z" fill="white"/>
<rect x="1" y="1" width="42" height="100" rx="5" stroke="white" stroke-width="2"/>
<path d="M54 102H38V100C41.6 100 42.1667 97.3333 42 96V76H44H56V99C56 101 54.6667 101.833 54 102Z" fill="white"/>
</svg>
