<svg width="102" height="102" viewBox="0 0 102 102" fill="none" xmlns="http://www.w3.org/2000/svg">
<path fill-rule="evenodd" clip-rule="evenodd" d="M79.1029 56.7904C92.1709 54.112 102 42.5476 102 28.6875C102 12.8438 89.1562 0 73.3125 0C59.4524 0 47.888 9.82913 45.2096 22.8971C33.943 25.2063 25.0838 34.1206 22.8555 45.4165C22.8692 45.3474 22.883 45.2784 22.8971 45.2095C9.82913 47.8879 0 59.4522 0 73.3123C0 89.156 12.8438 102 28.6875 102C42.5475 102 54.1119 92.1708 56.7903 79.1029C67.9881 76.8078 76.8078 67.9882 79.1029 56.7904ZM77.295 57.1008C74.5298 69.0671 63.8067 77.9875 51 77.9875C36.0952 77.9875 24.0125 65.9048 24.0125 51C24.0125 38.1933 32.9329 27.4702 44.8992 24.705C44.7184 26.0066 44.625 27.3361 44.625 28.6875C44.625 44.5312 57.4688 57.375 73.3125 57.375C74.6639 57.375 75.9934 57.2816 77.295 57.1008ZM51 79.6875C52.2415 79.6875 53.4646 79.6086 54.6645 79.4557C51.8898 91.2334 41.3124 99.9998 28.6875 99.9998C13.9484 99.9998 2 88.0514 2 73.3123C2 60.6874 10.7665 50.1099 22.5444 47.3353C22.3913 48.5353 22.3125 49.7584 22.3125 51C22.3125 66.8437 35.1563 79.6875 51 79.6875Z" fill="white"/>
</svg>
