<svg width="104" height="102" viewBox="0 0 104 102" fill="none" xmlns="http://www.w3.org/2000/svg">
<path d="M53 2V1H52H6C3.23858 1 1 3.23857 1 6V96C1 98.7614 3.23857 101 6 101H52H53V100V2Z" stroke="white" stroke-width="2"/>
<path d="M6.29289 50.2929C5.90237 50.6834 5.90237 51.3166 6.29289 51.7071L12.6569 58.0711C13.0474 58.4616 13.6805 58.4616 14.0711 58.0711C14.4616 57.6805 14.4616 57.0474 14.0711 56.6569L8.41422 51L14.0711 45.3431C14.4616 44.9526 14.4616 44.3195 14.0711 43.9289C13.6805 43.5384 13.0474 43.5384 12.6569 43.9289L6.29289 50.2929ZM47 50L7 50V52L47 52V50Z" fill="white"/>
<path d="M104 98C104 100.209 102.209 102 100 102L54 102L54 -4.37114e-06L100 -3.49691e-07C102.209 -1.56562e-07 104 1.79086 104 4L104 98Z" fill="white"/>
<path d="M101.9 51.9005C102.398 51.4032 102.398 50.5968 101.9 50.0995L93.796 41.995C93.2986 41.4977 92.4923 41.4977 91.995 41.995C91.4976 42.4924 91.4976 43.2987 91.995 43.796L99.1989 51L91.995 58.204C91.4976 58.7013 91.4976 59.5077 91.995 60.005C92.4923 60.5023 93.2986 60.5023 93.796 60.005L101.9 51.9005ZM57 52.2735L101 52.2735L101 49.7265L57 49.7265L57 52.2735Z" fill="black"/>
</svg>
