<svg width="102" height="102" viewBox="0 0 102 102" fill="none" xmlns="http://www.w3.org/2000/svg">
<mask id="mask0_63_1276" style="mask-type:alpha" maskUnits="userSpaceOnUse" x="0" y="0" width="102" height="102">
<rect width="102" height="102" rx="51" fill="white"/>
</mask>
<g mask="url(#mask0_63_1276)">
<rect width="102" height="102" rx="51" fill="white"/>
<path d="M101.346 52.6408L101.917 52.7223V52.1458V52.1432V52.1405V52.1378V52.1351V52.1325V52.1298V52.1272V52.1245V52.1219V52.1192V52.1166V52.114V52.1114V52.1087V52.1061V52.1035V52.1009V52.0983V52.0957V52.0931V52.0906V52.088V52.0854V52.0828V52.0803V52.0777V52.0752V52.0726V52.0701V52.0675V52.065V52.0625V52.0599V52.0574V52.0549V52.0524V52.0499V52.0474V52.0449V52.0424V52.0399V52.0374V52.0349V52.0325V52.03V52.0275V52.0251V52.0226V52.0201V52.0177V52.0152V52.0128V52.0104V52.0079V52.0055V52.0031V52.0006V51.9982V51.9958V51.9934V51.991V51.9886V51.9862V51.9838V51.9814V51.979V51.9767V51.9743V51.9719V51.9695V51.9672V51.9648V51.9624V51.9601V51.9577V51.9554V51.953V51.9507V51.9484V51.946V51.9437V51.9414V51.939V51.9367V51.9344V51.9321V51.9298V51.9275V51.9252V51.9229V51.9206V51.9183V51.916V51.9137V51.9114V51.9092V51.9069V51.9046V51.9024V51.9001V51.8978V51.8956V51.8933V51.8911V51.8888V51.8866V51.8843V51.8821V51.8798V51.8776V51.8754V51.8732V51.8709V51.8687V51.8665V51.8643V51.8621V51.8598V51.8576V51.8554V51.8532V51.851V51.8488V51.8466V51.8445V51.8423V51.8401V51.8379V51.8357V51.8335V51.8314V51.8292V51.827V51.8248V51.8227V51.8205V51.8184V51.8162V51.814V51.8119V51.8097V51.8076V51.8054V51.8033V51.8012V51.799V51.7969V51.7948V51.7926V51.7905V51.7884V51.7862V51.7841V51.782V51.7799V51.7778V51.7756V51.7735V51.7714V51.7693V51.7672V51.7651V51.763V51.7609V51.7588V51.7567V51.7546V51.7525V51.7504V51.7483V51.7462V51.7441V51.742V51.74V51.7379V51.7358V51.7337V51.7316V51.7296V51.7275V51.7254V51.7234V51.7213V51.7192V51.7171V51.7151V51.713V51.711V51.7089V51.7068V51.7048V51.7027V51.7007V51.6986V51.6966V51.6945V51.6925V51.6904V51.6884V51.6863V51.6843V51.6822V51.6802V51.6781V51.6761V51.6741V51.672V51.67V51.6679V51.6659V51.6639V51.6618V51.6598V51.6578V51.6557V51.6537V51.6517V51.6496V51.6476V51.6456V51.6436V51.6415V51.6395V51.6375V51.6355V51.6334V51.6314V51.6294V51.6274V51.6253V51.6233V51.6213V51.6193V51.6173V51.6152V51.6132V51.6112V51.6092V51.6072V51.6052V51.6031V51.6011V51.5991V51.5971V51.5951V51.5931V51.591V51.589V51.587V51.585V51.583V51.581V51.579V51.5769V51.5749V51.5729V51.5709V51.5689V51.5669V51.5649V51.5628V51.5608V51.5588V51.5568V51.5548V51.5528V51.5508V51.5487V51.5467V51.5447V51.5427V51.5407V51.5387V51.5366V51.5346V51.5326V51.5306V51.5286V51.5266V51.5245V51.5225V51.5205V51.5185V51.5164V51.5144V51.5124V51.5104V51.5084V51.5063V51.5043V51.5023V51.5003V51.4982V51.4962V51.4942V51.4921V51.4901V51.4881V51.486V51.484V51.482V51.4799V51.4779V51.4759V51.4738V51.4718V51.4697V51.4677V51.4657V51.4636V51.4616V51.4595V51.4575V51.4554V51.4534V51.4513V51.4493V51.4472V51.4452V51.4431V51.4411V51.439V51.4369V51.4349V51.4328V51.4308V51.4287V51.4266V51.4246V51.4225V51.4204V51.4183V51.4163V51.4142V51.4121V51.41V51.408V51.4059V51.4038V51.4017V51.3996V51.3975V51.3954V51.3933V51.3913V51.3892V51.3871V51.385V51.3829V51.3808V51.3786V51.3765V51.3744V51.3723V51.3702V51.3681V51.366V51.3638V51.3617V51.3596V51.3575V51.3554V51.3532V51.3511V51.349V51.3468V51.3447V51.3425V51.3404V51.3382V51.3361V51.3339V51.3318V51.3296V51.3275V51.3253V51.3232V51.321V51.3188V51.3167V51.3145V51.3123V51.3101V51.3079V51.3058V51.3036V51.3014V51.2992V51.297V51.2948V51.2926V51.2904V51.2882V51.286V51.2838V51.2816V51.2794V51.2771V51.2749V51.2727V51.2705V51.2682V51.266V51.2638V51.2615V51.2593V51.257V51.2548V51.2525V51.2503V51.248V51.2457V51.2435V51.2412V51.2389V51.2367V51.2344V51.2321V51.2298V51.2275V51.2252V51.2229V51.2206V51.2183V51.216V51.2137V51.2114V51.2091V51.2068V51.2045V51.2021V51.1998V51.1975V51.1951V51.1928V51.1905V51.1881V51.1858V51.1834V51.181V51.1787V51.1763V51.1739V51.1716V51.1692V51.1668V51.1644V51.162V51.1596V51.1572V51.1548V51.1524V51.15V51.1476V51.1452V51.1428V51.1403V51.1379V51.1355V51.133V51.1306V51.1281V51.1257V51.1232V51.1208V51.1183V51.1159V51.1134V51.1109V51.1084V51.1059V51.1034V51.101V51.0985V51.0959V51.0934V51.0909V51.0884V51.0859V51.0834V51.0808V51.0783V51.0758V51.0732V51.0707V51.0681V51.0656V51.063V51.0604V51.0578V51.0553V51.0527V51.0501V51.0475V51.0449V51.0423V51.0397V51.0371V51.0345V51.0319V51.0292V51.0266V51.024V51.0213V51.0187V51.016V51.0134V51.0107V51.008V51.0054V51.0027V51C101.917 38.963 97.5194 27.6238 90.5759 19.0601L90.2394 18.6451L89.8476 19.0083C80.4951 27.6765 69.7739 34.5197 58.3689 39.3098L57.8452 39.5298L58.1298 40.0214C60.6296 44.3392 62.4504 48.8888 64.2858 53.4774L64.4393 53.8611L64.845 53.7826C71.918 52.4136 78.9903 51.7292 86.2917 51.7292C90.8633 51.7292 96.5663 51.958 101.346 52.6408ZM87.3187 16.0754L87.7003 15.7224L87.3327 15.3548C78.0799 6.10198 65.3539 0.0855818 50.7788 -0.14577L50.7788 -0.145833H50.7708C43.3645 -0.145833 36.1885 1.47434 29.7061 4.484L28.9784 4.82187L29.6023 5.32632C40.3283 13.9984 49.2248 24.2649 55.8383 35.6675L56.0567 36.0441L56.4598 35.8796C67.747 31.2726 78.11 24.5934 87.3187 16.0754ZM25.8718 7.06546L25.6032 6.85401L25.3087 7.02757C12.3499 14.664 3.0914 27.8549 0.776476 43.1334L0.702038 43.6247L1.19285 43.7022C5.58047 44.395 9.96216 44.625 14.3333 44.625C27.4552 44.625 40.1204 42.3227 52.0962 37.7167L52.6482 37.5043L52.347 36.9953C45.6678 25.7099 36.6882 15.5806 25.8718 7.06546ZM0.657504 47.2972L0.0833335 47.2111V47.7917V47.7984V47.8051V47.8118V47.8185V47.8252V47.8319V47.8385V47.8452V47.8519V47.8585V47.8652V47.8719V47.8785V47.8852V47.8918V47.8984V47.9051V47.9117V47.9183V47.9249V47.9315V47.9381V47.9447V47.9513V47.9579V47.9645V47.9711V47.9777V47.9842V47.9908V47.9974V48.0039V48.0105V48.017V48.0236V48.0301V48.0367V48.0432V48.0497V48.0562V48.0628V48.0693V48.0758V48.0823V48.0888V48.0953V48.1018V48.1083V48.1148V48.1212V48.1277V48.1342V48.1406V48.1471V48.1536V48.16V48.1665V48.1729V48.1794V48.1858V48.1922V48.1987V48.2051V48.2115V48.2179V48.2243V48.2308V48.2372V48.2436V48.25V48.2564V48.2627V48.2691V48.2755V48.2819V48.2883V48.2946V48.301V48.3074V48.3137V48.3201V48.3265V48.3328V48.3392V48.3455V48.3518V48.3582V48.3645V48.3708V48.3772V48.3835V48.3898V48.3961V48.4024V48.4087V48.4151V48.4214V48.4277V48.434V48.4402V48.4465V48.4528V48.4591V48.4654V48.4717V48.4779V48.4842V48.4905V48.4967V48.503V48.5093V48.5155V48.5218V48.528V48.5343V48.5405V48.5468V48.553V48.5592V48.5655V48.5717V48.5779V48.5842V48.5904V48.5966V48.6028V48.609V48.6152V48.6214V48.6277V48.6339V48.6401V48.6463V48.6525V48.6586V48.6648V48.671V48.6772V48.6834V48.6896V48.6958V48.7019V48.7081V48.7143V48.7205V48.7266V48.7328V48.7389V48.7451V48.7513V48.7574V48.7636V48.7697V48.7759V48.782V48.7882V48.7943V48.8005V48.8066V48.8127V48.8189V48.825V48.8311V48.8373V48.8434V48.8495V48.8556V48.8618V48.8679V48.874V48.8801V48.8862V48.8924V48.8985V48.9046V48.9107V48.9168V48.9229V48.929V48.9351V48.9412V48.9473V48.9534V48.9595V48.9656V48.9717V48.9778V48.9839V48.99V48.9961V49.0021V49.0082V49.0143V49.0204V49.0265V49.0326V49.0386V49.0447V49.0508V49.0569V49.0629V49.069V49.0751V49.0811V49.0872V49.0933V49.0994V49.1054V49.1115V49.1175V49.1236V49.1297V49.1357V49.1418V49.1479V49.1539V49.16V49.166V49.1721V49.1781V49.1842V49.1903V49.1963V49.2024V49.2084V49.2145V49.2205V49.2266V49.2326V49.2387V49.2447V49.2508V49.2568V49.2629V49.2689V49.275V49.281V49.2871V49.2931V49.2991V49.3052V49.3112V49.3173V49.3233V49.3294V49.3354V49.3414V49.3475V49.3535V49.3596V49.3656V49.3717V49.3777V49.3838V49.3898V49.3958V49.4019V49.4079V49.414V49.42V49.426V49.4321V49.4381V49.4442V49.4502V49.4563V49.4623V49.4683V49.4744V49.4804V49.4865V49.4925V49.4986V49.5046V49.5107V49.5167V49.5228V49.5288V49.5349V49.5409V49.547V49.553V49.559V49.5651V49.5712V49.5772V49.5833V49.5893V49.5954V49.6014V49.6075V49.6135V49.6196V49.6256V49.6317V49.6378V49.6438V49.6499V49.6559V49.662V49.6681V49.6741V49.6802V49.6863V49.6923V49.6984V49.7045V49.7105V49.7166V49.7227V49.7287V49.7348V49.7409V49.747V49.753V49.7591V49.7652V49.7713V49.7774V49.7834V49.7895V49.7956V49.8017V49.8078V49.8139V49.82V49.8261V49.8322V49.8383V49.8444V49.8505V49.8566V49.8627V49.8688V49.8749V49.881V49.8871V49.8932V49.8993V49.9054V49.9115V49.9177V49.9238V49.9299V49.936V49.9421V49.9483V49.9544V49.9605V49.9667V49.9728V49.9789V49.9851V49.9912V49.9974V50.0035V50.0096V50.0158V50.0219V50.0281V50.0342V50.0404V50.0466V50.0527V50.0589V50.0651V50.0712V50.0774V50.0836V50.0897V50.0959V50.1021V50.1083V50.1145V50.1206V50.1268V50.133V50.1392V50.1454V50.1516V50.1578V50.164V50.1702V50.1764V50.1826V50.1889V50.1951V50.2013V50.2075V50.2137V50.22V50.2262V50.2324V50.2387V50.2449V50.2512V50.2574V50.2636V50.2699V50.2761V50.2824V50.2887V50.2949V50.3012V50.3075V50.3137V50.32V50.3263V50.3326V50.3388V50.3451V50.3514V50.3577V50.364V50.3703V50.3766V50.3829V50.3892V50.3955V50.4019V50.4082V50.4145V50.4208V50.4272V50.4335V50.4398V50.4462V50.4525V50.4589V50.4652V50.4716V50.4779V50.4843V50.4907V50.497V50.5034V50.5098V50.5162V50.5225V50.5289V50.5353V50.5417V50.5481V50.5545V50.5609V50.5673V50.5737V50.5802V50.5866V50.593V50.5994V50.6059V50.6123V50.6188V50.6252V50.6316V50.6381V50.6446V50.651V50.6575V50.664V50.6704V50.6769V50.6834V50.6899V50.6964V50.7029V50.7094V50.7159V50.7224V50.7289V50.7354V50.7419V50.7485V50.755V50.7615V50.7681V50.7746V50.7812V50.7877V50.7943V50.8009V50.8074V50.814V50.8206V50.8272V50.8337V50.8403V50.8469V50.8535V50.8601V50.8667V50.8734V50.88V50.8866V50.8932V50.8999V50.9065V50.9132V50.9198V50.9265V50.9331V50.9398V50.9465V50.9531V50.9598V50.9665V50.9732V50.9799V50.9866V50.9933V51C0.0833335 62.3432 3.78858 72.5284 10.0336 81.0864L10.3637 81.5387L10.7759 81.1598C24.924 68.1527 41.8064 59.0284 60.053 54.6948L60.6016 54.5645L60.4067 54.0355C58.7976 49.6679 56.9541 45.2878 54.6454 41.1322L54.4349 40.7533L54.03 40.9079C41.4827 45.6987 28.0223 48.2083 14.3333 48.2083C9.76614 48.2083 5.20898 47.9799 0.657504 47.2972ZM12.8463 83.8636L12.4935 84.193L12.8102 84.5573C22.0684 95.2042 35.7251 101.917 51 101.917C56.5564 101.917 61.8784 100.99 66.9641 99.3723L67.2773 99.2727L67.31 98.9456C67.5417 96.6291 67.5417 94.5454 67.5417 92.2608V92.25C67.5417 80.5092 65.6998 69.2255 62.015 58.4014L61.8694 57.9737L61.4292 58.0753C43.4706 62.2196 26.662 70.969 12.8463 83.8636ZM71.125 97.0625V97.8353L71.8299 97.5186C87.7974 90.3448 99.6011 75.0717 101.684 56.7858L101.742 56.2797L101.235 56.2314C96.4226 55.7731 90.9013 55.3125 86.2917 55.3125C79.3829 55.3125 72.7082 56.0034 66.04 57.1531L65.4667 57.252L65.6507 57.804C69.2995 68.7506 71.125 80.3845 71.125 92.25V92.2594V92.2688V92.2782V92.2876V92.297V92.3064V92.3158V92.3252V92.3346V92.344V92.3534V92.3628V92.3722V92.3816V92.391V92.4004V92.4098V92.4192V92.4286V92.438V92.4474V92.4568V92.4662V92.4756V92.485V92.4944V92.5038V92.5132V92.5226V92.532V92.5414V92.5508V92.5602V92.5696V92.579V92.5884V92.5978V92.6072V92.6166V92.626V92.6354V92.6448V92.6542V92.6636V92.673V92.6824V92.6918V92.7012V92.7106V92.72V92.7294V92.7388V92.7482V92.7576V92.767V92.7764V92.7858V92.7952V92.8046V92.814V92.8234V92.8328V92.8422V92.8516V92.861V92.8704V92.8798V92.8892V92.8986V92.908V92.9174V92.9268V92.9362V92.9456V92.955V92.9644V92.9738V92.9832V92.9926V93.002V93.0114V93.0208V93.0302V93.0396V93.049V93.0583V93.0677V93.0771V93.0865V93.0959V93.1053V93.1147V93.1241V93.1335V93.1429V93.1523V93.1617V93.1711V93.1805V93.1899V93.1993V93.2087V93.2181V93.2275V93.2369V93.2463V93.2557V93.2651V93.2745V93.2839V93.2933V93.3027V93.3121V93.3215V93.3309V93.3403V93.3497V93.3591V93.3685V93.3779V93.3873V93.3967V93.4061V93.4155V93.4249V93.4343V93.4437V93.4531V93.4625V93.4719V93.4813V93.4907V93.5001V93.5095V93.5189V93.5283V93.5377V93.5471V93.5565V93.5659V93.5753V93.5847V93.5941V93.6035V93.6129V93.6223V93.6317V93.6411V93.6505V93.6599V93.6693V93.6787V93.6881V93.6975V93.7069V93.7163V93.7257V93.7351V93.7445V93.7539V93.7633V93.7727V93.7821V93.7915V93.8009V93.8103V93.8197V93.8291V93.8385V93.8479V93.8573V93.8667V93.8761V93.8855V93.8949V93.9043V93.9137V93.9231V93.9325V93.9419V93.9513V93.9607V93.9701V93.9795V93.9889V93.9983V94.0077V94.0171V94.0265V94.0359V94.0453V94.0547V94.0641V94.0735V94.0829V94.0923V94.1017V94.1111V94.1205V94.1299V94.1393V94.1487V94.1581V94.1675V94.1769V94.1863V94.1957V94.2051V94.2145V94.2239V94.2333V94.2427V94.2521V94.2615V94.2709V94.2803V94.2897V94.2991V94.3085V94.3179V94.3273V94.3367V94.3461V94.3555V94.3649V94.3743V94.3837V94.3931V94.4025V94.4119V94.4213V94.4307V94.4401V94.4495V94.4589V94.4683V94.4777V94.4871V94.4965V94.5059V94.5153V94.5247V94.5341V94.5435V94.5529V94.5623V94.5717V94.5811V94.5905V94.5999V94.6093V94.6187V94.6281V94.6375V94.6469V94.6562V94.6656V94.675V94.6844V94.6938V94.7032V94.7126V94.722V94.7314V94.7408V94.7502V94.7596V94.769V94.7784V94.7878V94.7972V94.8066V94.816V94.8254V94.8348V94.8442V94.8536V94.863V94.8724V94.8818V94.8912V94.9006V94.91V94.9194V94.9288V94.9382V94.9476V94.957V94.9664V94.9758V94.9852V94.9946V95.004V95.0134V95.0228V95.0322V95.0416V95.051V95.0604V95.0698V95.0792V95.0886V95.098V95.1074V95.1168V95.1262V95.1356V95.145V95.1544V95.1638V95.1732V95.1826V95.192V95.2014V95.2108V95.2202V95.2296V95.239V95.2484V95.2578V95.2672V95.2766V95.286V95.2954V95.3048V95.3142V95.3236V95.333V95.3424V95.3518V95.3612V95.3706V95.38V95.3894V95.3988V95.4082V95.4176V95.427V95.4364V95.4458V95.4552V95.4646V95.474V95.4834V95.4928V95.5022V95.5116V95.521V95.5304V95.5398V95.5492V95.5586V95.568V95.5774V95.5868V95.5962V95.6056V95.615V95.6244V95.6338V95.6432V95.6526V95.662V95.6714V95.6808V95.6902V95.6996V95.709V95.7184V95.7278V95.7372V95.7466V95.756V95.7654V95.7748V95.7842V95.7936V95.803V95.8124V95.8218V95.8312V95.8406V95.85V95.8594V95.8688V95.8782V95.8876V95.897V95.9064V95.9158V95.9252V95.9346V95.944V95.9534V95.9628V95.9722V95.9816V95.991V96.0004V96.0098V96.0192V96.0286V96.038V96.0474V96.0568V96.0662V96.0756V96.085V96.0944V96.1038V96.1132V96.1226V96.132V96.1414V96.1508V96.1602V96.1696V96.179V96.1884V96.1978V96.2072V96.2166V96.226V96.2354V96.2448V96.2542V96.2635V96.2729V96.2823V96.2917V96.3011V96.3105V96.3199V96.3293V96.3387V96.3481V96.3575V96.3669V96.3763V96.3857V96.3951V96.4045V96.4139V96.4233V96.4327V96.4421V96.4515V96.4609V96.4703V96.4797V96.4891V96.4985V96.5079V96.5173V96.5267V96.5361V96.5455V96.5549V96.5643V96.5737V96.5831V96.5925V96.6019V96.6113V96.6207V96.6301V96.6395V96.6489V96.6583V96.6677V96.6771V96.6865V96.6959V96.7053V96.7147V96.7241V96.7335V96.7429V96.7523V96.7617V96.7711V96.7805V96.7899V96.7993V96.8087V96.8181V96.8275V96.8369V96.8463V96.8557V96.8651V96.8745V96.8839V96.8933V96.9027V96.9121V96.9215V96.9309V96.9403V96.9497V96.9591V96.9685V96.9779V96.9873V96.9967V97.0061V97.0155V97.0249V97.0343V97.0437V97.0531V97.0625ZM-3.5 51C-3.5 21.0261 21.0261 -3.5 51 -3.5C80.9739 -3.5 105.5 21.0261 105.5 51C105.5 80.9739 80.9739 105.5 51 105.5C21.0261 105.5 -3.5 80.9739 -3.5 51Z" fill="#131313" stroke="white"/>
</g>
</svg>
