<svg width="102" height="102" viewBox="0 0 102 102" fill="none" xmlns="http://www.w3.org/2000/svg">
<path fill-rule="evenodd" clip-rule="evenodd" d="M4 0C1.79086 0 0 1.79086 0 4V98C0 100.209 1.79086 102 4 102H98C100.209 102 102 100.209 102 98V4C102 1.79086 100.209 0 98 0H4ZM96 75C98.2091 75 100 73.2091 100 71V96C100 98.2091 98.2091 100 96 100H6C3.79086 100 2 98.2091 2 96V71C2 73.2091 3.79086 75 6 75H96ZM12 9.5C12 10.8807 10.8807 12 9.5 12C8.11929 12 7 10.8807 7 9.5C7 8.11929 8.11929 7 9.5 7C10.8807 7 12 8.11929 12 9.5ZM19 9.5C19 10.8807 17.8807 12 16.5 12C15.1193 12 14 10.8807 14 9.5C14 8.11929 15.1193 7 16.5 7C17.8807 7 19 8.11929 19 9.5ZM23.5 12C24.8807 12 26 10.8807 26 9.5C26 8.11929 24.8807 7 23.5 7C22.1193 7 21 8.11929 21 9.5C21 10.8807 22.1193 12 23.5 12ZM26.8795 39.759C31.2313 39.759 34.759 36.2313 34.759 31.8795C34.759 27.5278 31.2313 24 26.8795 24C22.5278 24 19 27.5278 19 31.8795C19 36.2313 22.5278 39.759 26.8795 39.759ZM59.9731 31.9355L47.2003 44.7278L45.256 42.7801C43.3921 40.913 40.3667 40.913 38.5028 42.7802L21.9288 59.3832C21.7015 59.611 21.8628 60 22.1847 60H61.5741C61.896 60 62.0573 59.611 61.8299 59.3832L54.7242 52.265H86.1523C86.4742 52.265 86.6356 51.8759 86.4081 51.6482L66.7255 31.9355C64.8617 30.0689 61.8369 30.0689 59.9731 31.9355ZM54.7242 52.265L47.2003 44.7278L40.2905 51.6482C40.0631 51.8759 40.2244 52.265 40.5463 52.265H54.7242Z" fill="white"/>
</svg>
